<?xml version="1.0"?>
<!DOCTYPE svg>
<svg xmlns="http://www.w3.org/2000/svg">

<g id="alien">


<polygon points="0,1 1,1 1,3 3,3 3,4 4,4 4,3 7,3 7,4 8,4 8,3 10,3 10,1 11,1 11,5 10,5 10,6 9,6 9,7 10,7 10,8 9,8 9,7 8,7 8,6 3,6 3,7 2,7 2,8 1,8 1,7 2,7 2,6 1,6 1,5 0,5" style="fill:rgb(0,0,0)"/>
<polygon points="2,2 3,2 3,1 2,1 2,0 3,0 3,1 4,1 4,2 7,2 7,1 8,1 8,0 9,0 9,1 8,1 8,2 9,2 9,3 2,3" style="fill:rgb(0,0,0)"/>
<polygon points="5,6 6,6 6,10 7,10 7,11 8,11 9,11 10,11 10,12 9,12 7,12 7,11 6,11 6,10 5,10  5,6" style="fill:rgb(0,0,0)"/>
</g>

</svg>
