<?xml version="1.0"?>
<!DOCTYPE svg>
<svg xmlns="http://www.w3.org/2000/svg">

<ellipse cx="170" cy="150" rx="22.5" ry="30" style="fill:rgb(150,255,150);"/>
<ellipse cx="180" cy="160" rx="22.5" ry="30" style="fill:rgb(0,255,0);"/>
<ellipse cx="190" cy="170" rx="22.5" ry="30" style="fill:rgb(150,255,150);"/>
<ellipse cx="200" cy="160" rx="22.5" ry="30" style="fill:rgb(0,255,0);"/>
<ellipse cx="210" cy="150" rx="22.5" ry="30" style="fill:rgb(150,255,150);"/>
<ellipse cx="220" cy="160" rx="22.5" ry="30" style="fill:rgb(0,255,0);"/>
<ellipse cx="230" cy="170" rx="22.5" ry="30" style="fill:rgb(150,255,150);"/>
<ellipse cx="240" cy="160" rx="22.5" ry="30" style="fill:rgb(0,255,0);"/>
<ellipse cx="252" cy="150" rx="22.5" ry="30" style="fill:rgb(150,255,150);"/>
<ellipse cx="260" cy="142" rx="22.5" ry="30" style="fill:rgb(0,255,0);"/>
<ellipse cx="265" cy="130" rx="22.5" ry="30" style="fill:rgb(150,255,150);"/>
<ellipse cx="269" cy="120" rx="22.5" ry="30" style="fill:rgb(0,255,0);"/>
<ellipse cx="273" cy="100" rx="25.5" ry="35" style="fill:rgb(150,255,150);"/>
<line x1="260" y1="80" x2="245" y2="50" style="stroke:rgb(0,0,0); stroke-width:2" />
<line x1="285" y1="80" x2="300" y2="50" style="stroke:rgb(0,0,0); stroke-width:2" />
<circle cx="255" cy="100" r="10" style="fill:rgb(255,255,255); stroke:rgb(0,0,0); stroke-width:0.5;"/>
<circle cx="290" cy="100" r="10" style="fill:rgb(255,255,255); stroke:rgb(0,0,0); stroke-width:0.5;"/>
<circle cx="255" cy="100" r="1" style="fill:rgb(0,0,0); stroke:rgb(0,0,0); stroke-width:0.5;"/>
<circle cx="290" cy="100" r="1" style="fill:rgb(0,0,0); stroke:rgb(0,0,0); stroke-width:0.5;"/>
<polyline points="255,115 290,120" style="stroke:rgb(0,0,0); stroke-width:1"/>
</svg>